<?xml version="1.0" encoding="utf-8"?>
<!-- Generator: Adobe Illustrator 28.1.0, SVG Export Plug-In . SVG Version: 6.00 Build 0)  -->
<svg version="1.1" id="MAIN" xmlns="http://www.w3.org/2000/svg" xmlns:xlink="http://www.w3.org/1999/xlink" x="0px" y="0px"
	 viewBox="0 0 1920 1080" style="enable-background:new 0 0 1920 1080;" xml:space="preserve">
<style type="text/css">
	.st0{clip-path:url(#SVGID_00000093161782980595684420000002922790708990388116_);fill:#D0D7FF;}
	.st1{clip-path:url(#SVGID_00000093161782980595684420000002922790708990388116_);}
	.st2{fill:none;stroke:#B7B6EF;stroke-width:6;stroke-miterlimit:10;}
</style>
<g>
	<defs>
		<rect id="SVGID_1_" width="1920" height="1080"/>
	</defs>
	<clipPath id="SVGID_00000149380197244393245120000003874376988404070795_">
		<use xlink:href="#SVGID_1_"  style="overflow:visible;"/>
	</clipPath>
	
		<rect style="clip-path:url(#SVGID_00000149380197244393245120000003874376988404070795_);fill:#D0D7FF;" width="1920" height="1080"/>
	<g id="GRID" style="clip-path:url(#SVGID_00000149380197244393245120000003874376988404070795_);">
		<polygon class="st2" points="-962.8,590.8 2882.8,590.8 8391.2,4436.3 -6471.2,4436.3 		"/>
		<line class="st2" x1="-1794.7" y1="1171.6" x2="3714.7" y2="1171.6"/>
		<line class="st2" x1="-1690.4" y1="1098.8" x2="3610.4" y2="1098.8"/>
		<line class="st2" x1="-1593.8" y1="1031.3" x2="3513.8" y2="1031.3"/>
		<line class="st2" x1="-1503.9" y1="968.6" x2="3423.9" y2="968.6"/>
		<line class="st2" x1="-1420.2" y1="910.1" x2="3340.2" y2="910.1"/>
		<line class="st2" x1="-1341.9" y1="855.5" x2="3261.9" y2="855.5"/>
		<line class="st2" x1="-1268.7" y1="804.4" x2="3188.7" y2="804.4"/>
		<line class="st2" x1="-1199.9" y1="756.4" x2="3119.9" y2="756.4"/>
		<line class="st2" x1="-1135.3" y1="711.3" x2="3055.3" y2="711.3"/>
		<line class="st2" x1="-1074.5" y1="668.8" x2="2994.5" y2="668.8"/>
		<line class="st2" x1="-1017" y1="628.7" x2="2937" y2="628.7"/>
		<line class="st2" x1="2740.3" y1="590.8" x2="7840.7" y2="4436.3"/>
		<line class="st2" x1="2597.9" y1="590.8" x2="7290.3" y2="4436.3"/>
		<line class="st2" x1="2455.5" y1="590.8" x2="6739.8" y2="4436.3"/>
		<line class="st2" x1="2313.1" y1="590.8" x2="6189.3" y2="4436.3"/>
		<line class="st2" x1="2170.6" y1="590.8" x2="5638.9" y2="4436.3"/>
		<line class="st2" x1="2028.2" y1="590.8" x2="5088.4" y2="4436.3"/>
		<line class="st2" x1="1885.8" y1="590.8" x2="4538" y2="4436.3"/>
		<line class="st2" x1="1743.3" y1="590.8" x2="3987.5" y2="4436.3"/>
		<line class="st2" x1="1600.9" y1="590.8" x2="3437.1" y2="4436.3"/>
		<line class="st2" x1="1458.5" y1="590.8" x2="2886.6" y2="4436.3"/>
		<line class="st2" x1="1316.1" y1="590.8" x2="2336.2" y2="4436.3"/>
		<line class="st2" x1="1173.6" y1="590.8" x2="1785.7" y2="4436.3"/>
		<line class="st2" x1="1031.2" y1="590.8" x2="1235.2" y2="4436.3"/>
		<line class="st2" x1="888.8" y1="590.8" x2="684.8" y2="4436.3"/>
		<line class="st2" x1="746.4" y1="590.8" x2="134.3" y2="4436.3"/>
		<line class="st2" x1="603.9" y1="590.8" x2="-416.2" y2="4436.3"/>
		<line class="st2" x1="461.5" y1="590.8" x2="-966.6" y2="4436.3"/>
		<line class="st2" x1="319.1" y1="590.8" x2="-1517.1" y2="4436.3"/>
		<line class="st2" x1="176.7" y1="590.8" x2="-2067.5" y2="4436.3"/>
		<line class="st2" x1="34.2" y1="590.8" x2="-2618" y2="4436.3"/>
		<line class="st2" x1="-108.2" y1="590.8" x2="-3168.4" y2="4436.3"/>
		<line class="st2" x1="-250.6" y1="590.8" x2="-3718.9" y2="4436.3"/>
		<line class="st2" x1="-393.1" y1="590.8" x2="-4269.3" y2="4436.3"/>
		<line class="st2" x1="-535.5" y1="590.8" x2="-4819.8" y2="4436.3"/>
		<line class="st2" x1="-677.9" y1="590.8" x2="-5370.3" y2="4436.3"/>
		<line class="st2" x1="-820.3" y1="590.8" x2="-5920.7" y2="4436.3"/>
	</g>
</g>
</svg>
